<?xml version="1.0" standalone="no"?>
<!DOCTYPE svg PUBLIC "-//W3C//DTD SVG 20010904//EN"
 "http://www.w3.org/TR/2001/REC-SVG-20010904/DTD/svg10.dtd">
<svg version="1.0" xmlns="http://www.w3.org/2000/svg"
 width="700.000000pt" height="700.000000pt" viewBox="0 0 700.000000 700.000000"
 preserveAspectRatio="xMidYMid meet">
<metadata>
Created by potrace 1.11, written by Peter Selinger 2001-2013
</metadata>
<g transform="translate(0.000000,700.000000) scale(0.100000,-0.100000)"
fill="#000000" stroke="none">
<path d="M5320 6993 c-71 -9 -208 -35 -230 -43 -14 -5 -36 -12 -50 -14 -77
-14 -272 -101 -379 -168 -255 -161 -475 -414 -590 -678 -13 -30 -30 -70 -38
-88 -17 -40 -70 -246 -77 -300 -16 -120 -19 -272 -20 -980 l-1 -782 25 -1
c109 -4 1589 0 1637 5 201 18 359 62 545 151 288 138 529 374 683 669 124 236
175 456 170 736 -7 401 -163 769 -446 1050 -72 72 -228 200 -243 200 -3 0 -25
13 -49 30 -122 82 -328 158 -532 197 -72 13 -341 24 -405 16z"/>
<path d="M1547 3064 c-1 -1 -49 -4 -107 -8 -126 -7 -176 -15 -315 -50 -110
-27 -277 -100 -400 -173 -179 -107 -391 -324 -508 -519 -90 -150 -174 -376
-193 -519 -3 -27 -10 -72 -14 -99 -11 -68 -5 -317 9 -401 95 -560 469 -1012
996 -1203 71 -26 166 -50 315 -79 49 -10 369 -9 410 1 14 4 41 8 60 11 19 3
50 9 68 14 18 5 33 10 35 9 8 -1 104 27 162 49 318 118 592 345 773 640 122
198 200 436 218 665 8 106 10 1646 1 1654 -5 5 -1504 13 -1510 8z"/>
<path d="M3963 3062 c-13 -2 -23 -9 -24 -15 0 -7 -1 -358 -1 -782 0 -694 4
-944 17 -965 3 -4 7 -25 11 -46 28 -188 131 -433 256 -611 99 -141 280 -311
431 -406 76 -49 221 -120 277 -137 25 -7 50 -17 55 -21 11 -8 161 -47 210 -54
117 -18 177 -22 305 -20 166 3 199 7 330 40 433 107 784 381 993 775 69 131
137 329 153 449 3 25 10 69 14 96 9 54 6 324 -4 365 -3 14 -8 42 -11 62 -21
156 -98 365 -193 523 -88 149 -243 323 -378 427 -137 105 -325 203 -474 247
-41 12 -88 26 -105 31 -16 5 -48 11 -70 15 -23 3 -52 8 -65 10 -69 14 -248 18
-945 19 -418 0 -770 0 -782 -2z"/>
</g>
</svg>
