<?xml version="1.0" standalone="no"?>
<!DOCTYPE svg PUBLIC "-//W3C//DTD SVG 20010904//EN"
 "http://www.w3.org/TR/2001/REC-SVG-20010904/DTD/svg10.dtd">
<svg version="1.0" xmlns="http://www.w3.org/2000/svg"
 width="700.000000pt" height="700.000000pt" viewBox="0 0 700.000000 700.000000"
 preserveAspectRatio="xMidYMid meet">
<metadata>
Created by potrace 1.14, written by Peter Selinger 2001-2017
</metadata>
<g transform="translate(0.000000,700.000000) scale(0.100000,-0.100000)"
fill="#000000" stroke="none">
<path d="M3364 5650 c-124 -44 -222 -142 -264 -266 -21 -59 -28 -208 -11 -218
4 -3 36 -1 70 5 193 34 407 -101 462 -293 7 -26 5 -28 -34 -39 -71 -19 -185
-6 -261 31 -109 52 -177 130 -232 267 l-9 22 -44 -20 c-184 -82 -282 -305
-221 -500 37 -120 118 -211 236 -266 53 -25 70 -28 164 -28 112 0 159 14 242
71 l37 26 47 -33 c129 -89 323 -92 456 -8 162 103 238 312 178 488 -37 111
-121 208 -219 253 l-46 21 3 73 c4 82 -15 164 -54 229 -27 47 -104 123 -154
153 -90 53 -247 67 -346 32z"/>
<path d="M2178 5177 l-638 -272 0 -282 0 -283 561 0 560 0 -26 43 c-121 196
-143 438 -58 642 36 86 105 185 170 245 47 43 57 59 65 98 4 26 11 55 14 65 3
9 2 17 -3 17 -4 0 -295 -123 -645 -273z"/>
<path d="M4170 5443 c1 -5 7 -33 14 -63 11 -47 23 -65 83 -125 118 -119 182
-250 203 -417 19 -157 -16 -311 -105 -455 l-26 -43 560 0 561 0 0 283 0 282
-637 273 c-351 150 -641 272 -645 272 -5 0 -8 -3 -8 -7z"/>
<path d="M1750 4010 c0 -68 22 -90 90 -90 l50 0 0 -980 0 -980 -50 0 c-68 0
-90 -22 -90 -90 l0 -50 280 0 280 0 0 50 c0 68 -22 90 -90 90 l-50 0 0 980 0
980 50 0 c68 0 90 22 90 90 l0 50 -280 0 -280 0 0 -50z"/>
<path d="M2730 4010 c0 -37 5 -55 20 -70 15 -15 33 -20 70 -20 l50 0 0 -980 0
-980 -50 0 c-68 0 -90 -22 -90 -90 l0 -50 280 0 280 0 0 50 c0 68 -22 90 -90
90 l-50 0 0 980 0 980 50 0 c37 0 55 5 70 20 15 15 20 33 20 70 l0 50 -280 0
-280 0 0 -50z"/>
<path d="M3710 4010 c0 -37 5 -55 20 -70 15 -15 33 -20 70 -20 l50 0 0 -980 0
-980 -50 0 c-68 0 -90 -22 -90 -90 l0 -50 280 0 280 0 0 50 c0 68 -22 90 -90
90 l-50 0 0 980 0 980 50 0 c37 0 55 5 70 20 15 15 20 33 20 70 l0 50 -280 0
-280 0 0 -50z"/>
<path d="M4690 4010 c0 -37 5 -55 20 -70 15 -15 33 -20 70 -20 l50 0 0 -980 0
-980 -50 0 c-68 0 -90 -22 -90 -90 l0 -50 280 0 280 0 0 50 c0 68 -22 90 -90
90 l-50 0 0 980 0 980 50 0 c37 0 55 5 70 20 15 15 20 33 20 70 l0 50 -280 0
-280 0 0 -50z"/>
<path d="M1540 1470 l0 -70 -140 0 -140 0 0 -70 0 -70 2240 0 2240 0 0 70 0
70 -140 0 -140 0 0 70 0 70 -1960 0 -1960 0 0 -70z"/>
</g>
</svg>
